<svg width="16" height="16" viewBox="0 0 16 16" fill="none" xmlns="http://www.w3.org/2000/svg">
<path d="M5.33333 2C3.49238 2 2 3.49238 2 5.33333C2 9.84095 5 14 6 14C7.05055 14 7.16937 12.4919 7.50158 11.4953L7.51966 11.441C7.67353 10.9794 8.32647 10.9794 8.48034 11.441L8.49842 11.4953C8.83063 12.4919 8.94944 14 10 14C11 14 14 9.84095 14 5.33333C14 3.49238 12.5076 2 10.6667 2C9.77493 2 9.07666 2.95325 8.35612 3.68424L8.35351 3.68685L8.1582 3.88151C7.7626 4.27711 7.22613 4.5 6.66667 4.5C6.39063 4.5 6.16684 4.27599 6.16667 4C6.16667 3.72386 6.39052 3.5 6.66667 3.5C6.96092 3.5 7.2431 3.38255 7.45117 3.17448C7.57159 3.05406 7.57154 2.85734 7.43962 2.74966C6.86548 2.28105 6.13223 2 5.33333 2Z" fill="#2F3239"/>
</svg>
