<svg width="16" height="16" viewBox="0 0 16 16" fill="none" xmlns="http://www.w3.org/2000/svg">
<path d="M10.4238 10.5C10.0025 12.5654 9.07618 14 8 14C6.92382 14 5.99753 12.5654 5.57617 10.5H10.4238Z" fill="#2F3239"/>
<path d="M4.55664 10.5C4.70456 11.2946 4.92236 12.0232 5.20052 12.6491C5.33978 12.9624 5.49941 13.2611 5.68034 13.5345C4.29297 12.9523 3.17165 11.8637 2.54557 10.5H4.55664Z" fill="#2F3239"/>
<path d="M13.4544 10.5C12.8283 11.8639 11.7066 12.9524 10.319 13.5345C10.5 13.261 10.6602 12.9625 10.7995 12.6491C11.0776 12.0232 11.2954 11.2946 11.4434 10.5H13.4544Z" fill="#2F3239"/>
<path d="M4.41211 6.5C4.36077 6.98536 4.33333 7.48763 4.33333 8C4.33333 8.51237 4.36077 9.01465 4.41211 9.5H2.1888C2.06541 9.02059 2 8.51793 2 8C2 7.48207 2.06541 6.97941 2.1888 6.5H4.41211Z" fill="#2F3239"/>
<path d="M10.5827 6.5C10.6375 6.97943 10.6667 7.48205 10.6667 8C10.6667 8.51795 10.6375 9.02057 10.5827 9.5H5.41732C5.36248 9.02057 5.33333 8.51795 5.33333 8C5.33333 7.48205 5.36248 6.97943 5.41732 6.5H10.5827Z" fill="#2F3239"/>
<path d="M13.8112 6.5C13.9346 6.97941 14 7.48207 14 8C14 8.51793 13.9346 9.02059 13.8112 9.5H11.5879C11.6392 9.01465 11.6667 8.51237 11.6667 8C11.6667 7.48763 11.6392 6.98536 11.5879 6.5H13.8112Z" fill="#2F3239"/>
<path d="M5.67969 2.46484C5.49871 2.73831 5.3398 3.03755 5.20052 3.35091C4.92236 3.97678 4.70456 4.70538 4.55664 5.5H2.54557C3.16934 4.14132 4.28442 3.0551 5.66471 2.47135C5.66973 2.46923 5.67467 2.46695 5.67969 2.46484Z" fill="#2F3239"/>
<path d="M8 2C9.07618 2 10.0025 3.43458 10.4238 5.5H5.57617C5.99753 3.43458 6.92382 2 8 2Z" fill="#2F3239"/>
<path d="M10.319 2.46484C11.7067 3.04694 12.8282 4.13602 13.4544 5.5H11.4434C11.2954 4.70538 11.0776 3.97678 10.7995 3.35091C10.6601 3.03733 10.5001 2.73847 10.319 2.46484Z" fill="#2F3239"/>
</svg>
