<svg width="32" height="32" viewBox="0 0 32 32" fill="none" xmlns="http://www.w3.org/2000/svg">
<path d="M8.33819 13.5556L4.84361 8.71605C4.2964 7.95822 4.84625 6.90777 5.79015 6.90777H12.7793C13.7232 6.90777 14.2731 7.95822 13.7258 8.71605L10.2313 13.5556C9.76811 14.197 8.80135 14.197 8.33819 13.5556Z" fill="#2F3239"/>
<path d="M18.9664 5.45267C19.186 5.1675 19.5284 5 19.8917 5H27.2893C28.2496 5 28.7952 6.08289 28.2147 6.83666L13.0336 26.5473C12.814 26.8325 12.4716 27 12.1083 27H4.71065C3.75034 27 3.20474 25.9171 3.78529 25.1633L18.9664 5.45267Z" fill="#2F3239"/>
<path d="M21.7687 18.4444L18.2741 23.2839C17.7269 24.0418 18.2768 25.0922 19.2207 25.0922H26.2098C27.1537 25.0922 27.7036 24.0418 27.1564 23.2839L23.6618 18.4444C23.1986 17.803 22.2319 17.803 21.7687 18.4444Z" fill="#2F3239"/>
<path d="M30 16C30 17.2554 28.9672 18.2731 27.6932 18.2731C26.4191 18.2731 25.3863 17.2554 25.3863 16C25.3863 14.7446 26.4191 13.7269 27.6932 13.7269C28.9672 13.7269 30 14.7446 30 16Z" fill="#2F3239"/>
<path d="M6.61367 16C6.61367 17.2554 5.58086 18.2731 4.30683 18.2731C3.0328 18.2731 2 17.2554 2 16C2 14.7446 3.0328 13.7269 4.30683 13.7269C5.58086 13.7269 6.61367 14.7446 6.61367 16Z" fill="#2F3239"/>
</svg>
